<svg width="106" height="42" viewBox="0 0 106 42" fill="none" xmlns="http://www.w3.org/2000/svg">
<g clip-path="url(#clip0_6900_20106)">
<path d="M5.06251 30.6423H7.08765C7.46071 30.6423 7.72717 30.4816 7.72717 30.2137C7.72717 29.9459 7.40741 29.7852 7.08765 29.7852H3.94336V31.8744L4.47629 31.0173C4.63617 30.7494 4.84934 30.6423 5.06251 30.6423Z" fill="white"/>
<path d="M5.06251 33.0536H7.08765C7.46071 33.0536 7.78046 32.7857 7.78046 32.4643C7.78046 32.1429 7.46071 31.875 7.08765 31.875H3.94336V34.2321L4.47629 33.375C4.63617 33.1607 4.84934 33.0536 5.06251 33.0536Z" fill="white"/>
<path d="M0 0V42H41.7818V0H0ZM13.3766 7.82143H22.3831C24.6747 7.82143 28.4052 8.19643 28.4052 11.7857C28.4052 13.5536 27.1262 14.7857 25.5807 15.2679C27.446 15.9643 28.4052 17.1964 28.4052 18.8571C28.4052 22.5536 24.8879 22.9286 22.3831 22.9286H19.3454V20.5179C19.3454 19.1786 20.4646 19.2321 20.4646 19.2321H23.1825C23.822 19.2321 24.0352 18.6964 24.0352 18.6964L24.9945 16.7679H20.4113C19.3987 16.875 19.2921 18.1071 19.2921 18.1071V14.9464C19.2921 13.5 20.4646 13.5 20.4646 13.5H23.8753C24.5681 13.5 24.7813 13.0714 24.7813 13.0714L25.7939 11.0357H16.5209V22.9286H15.2418H13.3766V7.82143ZM7.08798 34.2321H3.94369H2.13172V28.5536H7.08798C8.10055 28.5536 9.75264 28.7143 9.75264 30.0536C9.75264 30.6964 9.16642 31.1786 8.5269 31.3393C9.37959 31.6071 9.75264 32.0357 9.75264 32.6786C9.80593 34.0714 8.20714 34.2321 7.08798 34.2321ZM16.6807 34.2321L16.0945 33.2143H12.8969L13.4299 32.3571C13.5897 32.1429 13.8029 32.0357 14.0161 32.0357H15.4017L14.176 29.9464L11.7245 34.2321H9.59276L13.0568 28.5536H15.4017L18.8658 34.2321H16.6807ZM22.8627 34.2321H19.825C19.6119 34.2321 19.3454 34.125 19.2388 33.9107L18.7059 33.0536H22.1699C22.5963 33.0536 22.916 32.8393 22.916 32.4643V28.6071H24.728V32.625C24.728 33.8036 23.9286 34.2321 22.8627 34.2321ZM31.6028 34.2321L31.0699 33.2143H27.8723L28.4052 32.3571C28.5651 32.1429 28.7783 32.0357 28.9915 32.0357H30.3771L29.1513 29.9464L26.6998 34.2321H24.5681L28.0322 28.5536H30.3771L33.8411 34.2321H31.6028ZM39.7034 32.5714C39.7034 33.8036 38.904 34.1786 37.8381 34.1786H34.8004C34.5872 34.1786 34.3208 34.0714 34.2142 33.8571L33.6812 33H37.1453C37.5716 33 37.8914 32.7857 37.8914 32.4107V28.5536H39.7034V32.5714Z" fill="white"/>
<path d="M101.47 25.0725L106 16.9297H102.909L99.8183 23.144L96.674 16.9297H93.583L98.1129 25.0725" fill="white"/>
<path d="M57.3438 16.9297H54.7324V25.0725H57.3438V16.9297Z" fill="white"/>
<path d="M64.6982 16.9297V21.4833L61.6072 16.9297H58.4629V25.0725H61.0743V20.5725L61.1275 20.6261L64.1653 25.0725H67.3096V16.9297H64.6982Z" fill="white"/>
<path d="M94.4359 25.0725L92.5707 21.9118L92.4108 21.644C92.7838 21.4833 93.1036 21.1618 93.3701 20.8404C93.6365 20.4654 93.7964 19.9833 93.7431 19.5547C93.7431 19.2333 93.6898 18.9118 93.5833 18.5904C93.4767 18.269 93.2635 18.0011 93.0503 17.7333C92.7839 17.4654 92.5174 17.3047 92.1443 17.144C91.7713 16.9833 91.3449 16.9297 90.9719 16.9297H86.0156L86.6551 18.644H89.9593C90.1725 18.644 90.439 18.6975 90.5988 18.9118C90.7587 19.0725 90.8653 19.2868 90.812 19.5011C90.812 19.7154 90.7054 19.9297 90.5988 20.144C90.439 20.3047 90.1725 20.4654 89.9593 20.4654H87.2947L87.8809 22.1261H89.6396L91.3449 25.1261H94.4359V25.0725Z" fill="white"/>
<path d="M76.7423 22.4983C76.7423 21.9626 76.5291 20.4626 74.1842 20.034C73.9711 19.9805 73.6513 19.9805 73.5447 19.9805C73.225 19.9805 72.7986 19.9269 72.2124 19.9805H72.0525C71.786 19.9805 71.0932 19.9269 71.0399 19.3376C71.0399 19.3376 70.9866 18.7483 71.8393 18.6948H76.316V16.9805C76.316 16.9805 72.4789 16.9805 71.1998 16.9805C70.2938 16.9805 68.3753 16.9805 68.1621 18.909C68.1621 18.909 68.1621 18.909 68.1621 18.9626V19.0162C68.1621 19.1233 68.1621 19.2305 68.1621 19.3376C68.1621 19.7126 68.322 20.8912 70.0274 21.4269C70.0274 21.4269 70.6669 21.6948 71.8393 21.7483C71.8393 21.7483 72.692 21.7483 72.8519 21.7483C72.8519 21.7483 73.4914 21.7483 73.6513 22.1769C73.6513 22.1769 74.1842 23.1412 72.9585 23.409C72.9052 23.409 72.692 23.4626 72.4789 23.4626H68.695V25.1769H72.9585C72.9585 25.1769 76.316 25.2305 76.689 23.0876C76.7423 22.7662 76.7423 22.5519 76.7423 22.4983Z" fill="white"/>
<path d="M45.9922 16.9286V25.0714H46.3652H48.6035V21.8036H50.8952C51.4281 21.8036 51.588 21.4286 51.588 21.4286L52.3874 20.0893H48.6035V19.6071C48.6568 18.6429 49.5628 18.5893 49.5628 18.5893H52.3341C52.9203 18.5893 53.0802 18.2679 53.0802 18.2679L53.9329 16.875H45.9922V16.9286Z" fill="white"/>
<path d="M80.2062 19.6618V20.144H83.9368L83.1374 21.4297C83.1374 21.4297 82.9775 21.8047 82.4445 21.8047H80.2062V22.5547C80.2062 22.5547 80.2062 22.6083 80.2062 22.7154C80.3661 23.0904 80.6859 23.3583 81.1122 23.3583H84.3631H85.0559V25.0725H77.4883V16.9297H85.0559V18.644H81.1122C80.6326 18.644 80.2062 19.0725 80.2062 19.6618Z" fill="white"/>
</g>
<defs>
<clipPath id="clip0_6900_20106">
<rect width="106" height="42" fill="white"/>
</clipPath>
</defs>
</svg>
